TANGLED           (2010) MKV 3D

PLOT:
The magically long-haired Rapunzel has spent her entire life in a tower, but now that a runaway thief has stumbled upon her, she is about to discover the world for the first time, and who she really is. 

INFO:
Format                           : Matroska
File size                        : 16.4 GiB
Duration                         : 1h 40mn
Overall bit rate                 : 23.4 Mbps
Movie name                       : TANGLED
Writing library                  : libebml v0.7.8 + libmatroska v0.8.1

Video
ID                               : 1
Format                           : AVC
Format/Info                      : Advanced Video Codec
Format profile                   : High@L5.1
Format settings, CABAC           : Yes
Format settings, ReFrames        : 2 frames
Format settings, GOP             : M=1, N=24
Codec ID                         : V_MPEG4/ISO/AVC
Duration                         : 1h 40mn
Bit rate                         : 19.6 Mbps
Width                            : 1 920 pixels
Height                           : 1 080 pixels
Display aspect ratio             : 16:9
Frame rate                       : 23.976 fps
Color space                      : YUV
Chroma subsampling               : 4:2:0
Bit depth                        : 8 bits
Scan type                        : Progressive
Bits/(Pixel*Frame)               : 0.395
Stream size                      : 13.7 GiB (84%)
Writing library                  : x264 core
Color primaries                  : BT.709-5, BT.1361, IEC 61966-2-4, SMPTE RP177
Transfer characteristics         : BT.709-5, BT.1361
Matrix coefficients              : BT.709-5, BT.1361, IEC 61966-2-4 709, SMPTE RP177

Audio
ID                               : 2
Format                           : DTS
Format/Info                      : Digital Theater Systems
Format profile                   : MA / Core
Codec ID                         : A_DTS
Duration                         : 1h 40mn
Bit rate mode                    : Variable
Bit rate                         : 3 292 Kbps
Channel(s)                       : 8 channels
Channel positions                : Front: L C R, Side: L R, Back: L R, LFE
Sampling rate                    : 48.0 KHz
Bit depth                        : 24 bits
Compression mode                 : Lossless
Language                         : English

+the folder cortains 5.1 channel mp4 audio stream/engish

INFO:
Format                           : MPEG-4
Format profile                   : Base Media
Codec ID                         : isom
File size                        : 348 MiB
Duration                         : 1h 40mn
Overall bit rate                 : 486 Kbps
Track name                       : Tangled

Audio
ID                               : 1
Format                           : AAC
Format/Info                      : Advanced Audio Codec
Format profile                   : LC
Codec ID                         : 40
Duration                         : 1h 40mn
Bit rate mode                    : Variable
Bit rate                         : 483 Kbps
Channel(s)                       : 6 channels
Channel positions                : Front: L C R, Side: L R, LFE
Sampling rate                    : 48.0 KHz
Compression mode                 : Lossy
Stream size                      : 346 MiB (99%)

                   !!YOU NEED 3D EQUIPMENT TO WATCH THIS!!

                                    (LiG)		